<?xml version="1.0" encoding="utf-8"?>
<!-- Generator: Adobe Illustrator 24.2.3, SVG Export Plug-In . SVG Version: 6.00 Build 0)  -->
<svg version="1.1" id="레이어_1" xmlns="http://www.w3.org/2000/svg" xmlns:xlink="http://www.w3.org/1999/xlink" x="0px"
	 y="0px" viewBox="0 0 2500 2500" style="enable-background:new 0 0 2500 2500;" xml:space="preserve">
<style type="text/css">
	.st0{fill:#737373;}
</style>
<g>
	<path class="st0" d="M1410.5,1733.1c-44.5,27.3-101.5,42.3-160.4,42.3c-59,0-116-15.1-160.5-42.3l-726.5-445.5
		c0,0-65.6-40.2-65.6,50.8v444.9c0,234.4,426.5,487,952.5,487s952.5-252.6,952.5-487v-470c0-73.1-46.6-37.4-46.6-37.4L1410.5,1733.1
		z"/>
	<path class="st0" d="M2458.1,933.2c55.8-34.2,55.8-90.3,0-124.5L1351.5,255.3c-55.8-34.2-147.1-34.2-203,0L41.9,808.7
		C-14,843-14,899,41.9,933.2l1106.6,678.7c55.8,34.2,147.2,34.2,203,0"/>
	<path class="st0" d="M2412.4,1939.2v-749.6c0,0,0.5-35.5-20.6-23.8c-16.9,9.4-58.3,32.5-72.9,45.2c-16.9,14.6-13,47.5-13,47.5
		v680.7c0,9.7-8.3,14.3-12.3,16.6c-38.3,22.5-64,64-64,111.6c0,71.5,58,129.5,129.5,129.5c71.5,0,129.5-58,129.5-129.5
		c0-47.8-25.9-89.4-64.4-111.9C2420.4,1953.3,2412.4,1948.9,2412.4,1939.2L2412.4,1939.2z"/>
</g>
</svg>
