<?xml version="1.0" encoding="utf-8"?>
<!-- Generator: Adobe Illustrator 24.2.3, SVG Export Plug-In . SVG Version: 6.00 Build 0)  -->
<svg version="1.1" id="Capa_1" xmlns="http://www.w3.org/2000/svg" xmlns:xlink="http://www.w3.org/1999/xlink" x="0px" y="0px"
	 viewBox="0 0 2500 2500" style="enable-background:new 0 0 2500 2500;" xml:space="preserve">
<style type="text/css">
	.st0{fill:#737373;}
</style>
<path class="st0" d="M2037.4,987.5c-45.5,0-87.5-14.6-87.5-120.3v-98.4c-11-318.9-274-571-593.1-568.7H744.5
	C440.1,203.7,196.3,453.5,200,757.9c0.1,3.6,0.1,7.3,0.3,10.9v962.4c-9.7,304.2,229.1,558.8,533.4,568.4c3.6,0.1,7.3,0.2,10.9,0.3
	h913.1c366.2,0,642.4-256.3,642.4-596V1250C2299.9,1053.7,2233.7,987.5,2037.4,987.5z M856.4,725h437.5
	c72.5,0,131.2,58.7,131.2,131.2s-58.7,131.2-131.2,131.2H856.4c-72.5,0-131.2-58.7-131.2-131.2S783.9,725,856.4,725z M1643.8,1774.9
	H856.4c-72.5,0-131.2-58.7-131.2-131.2c0-72.5,58.7-131.2,131.2-131.2h787.4c72.5,0,131.2,58.7,131.2,131.2
	C1775,1716.2,1716.2,1774.9,1643.8,1774.9z"/>
</svg>
