<?xml version="1.0" encoding="utf-8"?>
<!-- Generator: Adobe Illustrator 24.2.3, SVG Export Plug-In . SVG Version: 6.00 Build 0)  -->
<svg version="1.1" id="Layer_1" xmlns="http://www.w3.org/2000/svg" xmlns:xlink="http://www.w3.org/1999/xlink" x="0px" y="0px"
	 viewBox="0 0 2500 2500" style="enable-background:new 0 0 2500 2500;" xml:space="preserve">
<style type="text/css">
	.st0{fill:#737373;}
</style>
<path class="st0" d="M1250,50C587.3,50,50,587.3,50,1250s537.3,1200,1200,1200s1200-537.3,1200-1200S1912.7,50,1250,50z
	 M1620.7,1240.1h-228.2v841.6h-345.7v-836H858.6V955.2h182.5c0-85.9,0.8-162.2,0-241.9c0-228.7,175.5-295,333.2-295h265.8h0.1v286.9
	c-22.3,0.1-109.3,0-154.1,0c-5.7,0-99.7-5.2-99.7,85.2c0.6,36.9,0,164,0,164h254.8L1620.7,1240.1z"/>
</svg>
