<?xml version="1.0" encoding="utf-8"?>
<!-- Generator: Adobe Illustrator 24.2.3, SVG Export Plug-In . SVG Version: 6.00 Build 0)  -->
<svg version="1.1" id="Layer_1" xmlns="http://www.w3.org/2000/svg" xmlns:xlink="http://www.w3.org/1999/xlink" x="0px" y="0px"
	 viewBox="0 0 2500 2500" style="enable-background:new 0 0 2500 2500;" xml:space="preserve">
<style type="text/css">
	.st0{fill:#737373;}
</style>
<path class="st0" d="M1305.4,2112.4l-512.9-9.4c-166.1-3.3-332.5,3.3-495.4-30.6c-247.7-50.6-265.2-298.7-283.6-506.8
	C-11.8,1273.1-2,975.2,45.8,685.1c27-162.8,133-259.9,297-270.5c553.7-38.4,1111.1-33.8,1663.6-15.9c58.3,1.6,117.1,10.6,174.6,20.8
	c284,49.8,290.9,330.9,309.3,567.6c18.4,239.1,10.6,479.4-24.5,716.9c-28.2,196.6-82,361.5-309.3,377.4
	c-284.8,20.8-563.1,37.6-848.7,32.2C1307.8,2112.4,1306.2,2112.4,1305.4,2112.4z M1003.9,1614.6
	c214.6-123.2,425.2-244.4,638.6-366.8c-215-123.2-425.2-244.4-638.6-366.8L1003.9,1614.6L1003.9,1614.6z"/>
</svg>
