<?xml version="1.0" encoding="utf-8"?>
<!-- Generator: Adobe Illustrator 24.2.0, SVG Export Plug-In . SVG Version: 6.00 Build 0)  -->
<svg version="1.1" id="Layer_1" xmlns="http://www.w3.org/2000/svg" xmlns:xlink="http://www.w3.org/1999/xlink" x="0px" y="0px"
	 viewBox="0 0 80.8 68.7" style="enable-background:new 0 0 80.8 68.7;" xml:space="preserve">
<style type="text/css">
	.st0{fill:#00CECE;}
	.st1{opacity:0.5;}
</style>
<g>
	<g>
		<path class="st0" d="M24.1,35.2c-4.3,0-8.3-1.7-11.3-4.7c-3-3-4.7-7.1-4.7-11.3c0-8.8,7.2-16,16-16l0,0c0.9,0,1.6,0.7,1.7,1.6
			c0,0.9-0.7,1.7-1.7,1.7c-3.4,0-6.6,1.3-9,3.7c-2.4,2.4-3.7,5.6-3.7,9c0,3.4,1.3,6.6,3.7,9c2.4,2.4,5.6,3.7,9,3.7c0,0,0,0,0,0
			l17.3,0l0,0c0.9,0,1.6,0.7,1.7,1.6c0,0.9-0.7,1.7-1.7,1.7L24.1,35.2C24.1,35.2,24.1,35.2,24.1,35.2z"/>
	</g>
	<g class="st1">
		<path class="st0" d="M41.4,35.2c-0.9,0-1.6-0.7-1.7-1.6c0-0.9,0.7-1.7,1.7-1.7c3.4,0,6.6-1.3,9-3.7c2.4-2.4,3.7-5.6,3.7-9
			c0-7-5.7-12.7-12.7-12.7c0,0,0,0,0,0l-17.3,0l0,0c-0.9,0-1.6-0.7-1.7-1.6c0-0.9,0.7-1.7,1.7-1.7l17.3,0c0,0,0,0,0,0
			c8.8,0,16,7.2,16,16c0,4.3-1.7,8.3-4.7,11.3C49.7,33.5,45.7,35.2,41.4,35.2z"/>
	</g>
	<g class="st1">
		<path class="st0" d="M42.1,55.8c-4.3,0-8.3-1.7-11.3-4.7c-3-3-4.7-7-4.7-11.3c0-2.4,0.5-4.8,1.6-7c0.4-0.8,1.4-1.2,2.2-0.8
			c0.8,0.4,1.2,1.4,0.8,2.2c-0.8,1.7-1.3,3.6-1.3,5.5c0,3.4,1.3,6.6,3.7,9c2.4,2.4,5.6,3.7,9,3.7c0,0,0,0,0,0l0,0
			c0.9,0,1.6,0.7,1.7,1.6C43.8,55.1,43,55.8,42.1,55.8C42.1,55.8,42.1,55.8,42.1,55.8z"/>
	</g>
	<g>
		<path class="st0" d="M42.1,55.8c-0.9,0-1.6-0.7-1.7-1.6c0-0.9,0.7-1.7,1.7-1.7l17.2,0c3.4,0,6.6-1.3,9-3.7c2.4-2.4,3.7-5.6,3.7-9
			c0-7-5.7-12.7-12.7-12.7c0,0,0,0,0,0l-5.1,0c-0.9,0-1.6-0.7-1.7-1.6c0-0.9,0.7-1.7,1.7-1.7l5.1,0c0,0,0,0,0,0c8.8,0,16,7.2,16,16
			c0,4.3-1.7,8.3-4.7,11.3c-3,3-7.1,4.7-11.3,4.7L42.1,55.8L42.1,55.8z"/>
	</g>
	<g>
		<path class="st0" d="M7.1,40.8c-0.5,0-1-0.2-1.3-0.7c-0.5-0.6-0.4-1.4,0-2l7.3-9.5c0.6-0.7,1.6-0.9,2.3-0.3
			c0.7,0.6,0.9,1.6,0.3,2.3l-3.6,4.7l8.4-3.4c0.8-0.3,1.8,0.1,2.1,0.9c0.3,0.8-0.1,1.8-0.9,2.1l-14,5.7C7.5,40.8,7.3,40.8,7.1,40.8z
			"/>
	</g>
	<g>
		<path class="st0" d="M46.4,14.2c-1.7,0-3.3-0.7-4.5-1.8c-1.2-1.2-1.9-2.8-1.9-4.5c0-1.7,0.7-3.3,1.8-4.5s2.8-1.9,4.5-1.9h0
			c3.5,0,6.3,2.8,6.3,6.3v0C52.7,11.3,49.9,14.2,46.4,14.2L46.4,14.2z M46.4,4.8C46.4,4.8,46.4,4.8,46.4,4.8c-0.8,0-1.6,0.3-2.1,0.9
			c-0.6,0.6-0.9,1.3-0.9,2.1c0,0.8,0.3,1.6,0.9,2.1c0.6,0.6,1.3,0.9,2.1,0.9c0,0,0,0,0,0c1.7,0,3-1.4,3-3S48.1,4.8,46.4,4.8z"/>
	</g>
	<g>
		<path class="st0" d="M45.6,51.8c-1.4,0-2.7-0.5-3.6-1.5c-1-1-1.5-2.3-1.5-3.6c0-1.4,0.5-2.7,1.5-3.6c1-1,2.3-1.5,3.6-1.5h0
			c2.8,0,5.1,2.3,5.2,5.1c0,0,0,0,0,0C50.7,49.5,48.4,51.8,45.6,51.8L45.6,51.8z M45.6,44.8C45.6,44.8,45.6,44.8,45.6,44.8
			c-0.5,0-1,0.2-1.3,0.5s-0.5,0.8-0.5,1.3c0,0.5,0.2,1,0.5,1.3c0.3,0.3,0.8,0.5,1.3,0.5c0,0,0,0,0,0c1,0,1.8-0.8,1.8-1.9
			S46.6,44.8,45.6,44.8z"/>
	</g>
	<g>
		<path class="st0" d="M66.8,67.2c-0.4,0-0.9-0.2-1.2-0.5l-10.3-11c-0.6-0.7-0.6-1.7,0.1-2.3c0.7-0.6,1.7-0.6,2.3,0.1l7,7.4L63.8,53
			c-0.1-0.9,0.6-1.7,1.5-1.8c0.9-0.1,1.7,0.6,1.8,1.5l1.3,12.7c0.1,0.7-0.3,1.4-1,1.7C67.2,67.1,67,67.2,66.8,67.2z"/>
	</g>
	<g class="st1">
		<path class="st0" d="M46.4,48.2c-0.5,0-1.1-0.3-1.4-0.8c-0.5-0.8-0.3-1.8,0.5-2.3l6.7-4.3c0.3-0.2,0.6-0.3,0.9-0.3l19.7,0l0,0
			c0.9,0,1.6,0.7,1.7,1.6c0,0.9-0.7,1.7-1.7,1.7l-19.2,0l-6.3,4.1C47,48.1,46.7,48.2,46.4,48.2z"/>
	</g>
	<g>
		<path class="st0" d="M54.1,37.2c-0.9,0-1.6-0.7-1.7-1.6c0-0.9,0.7-1.7,1.7-1.7l19,0l0,0c0.9,0,1.6,0.7,1.7,1.6
			c0,0.9-0.7,1.7-1.7,1.7L54.1,37.2L54.1,37.2z"/>
	</g>
	<g>
		<path class="st0" d="M10.1,16.5c-0.9,0-1.6-0.7-1.6-1.6c0-0.9,0.7-1.7,1.6-1.7l24.6,0l7.3-4.1c0.8-0.5,1.8-0.2,2.2,0.6
			c0.4,0.8,0.2,1.8-0.6,2.2l-7.7,4.3c-0.2,0.1-0.5,0.2-0.8,0.2L10.1,16.5L10.1,16.5z"/>
	</g>
	<g>
		<path class="st0" d="M17.4,22.8c-0.9,0-1.6-0.7-1.7-1.6c0-0.9,0.7-1.7,1.7-1.7l12.7,0c0.9,0,1.6,0.7,1.7,1.6
			c0,0.9-0.7,1.7-1.7,1.7L17.4,22.8z"/>
	</g>
	<g>
		<path class="st0" d="M34.8,22.8c-0.9,0-1.6-0.7-1.7-1.6c0-0.9,0.7-1.7,1.7-1.7l4.3,0l0,0c0.9,0,1.6,0.7,1.7,1.6
			c0,0.9-0.7,1.7-1.7,1.7L34.8,22.8L34.8,22.8z"/>
	</g>
</g>
</svg>
