<?xml version="1.0" encoding="utf-8"?>
<!-- Generator: Adobe Illustrator 24.2.0, SVG Export Plug-In . SVG Version: 6.00 Build 0)  -->
<svg version="1.1" id="Layer_1" xmlns="http://www.w3.org/2000/svg" xmlns:xlink="http://www.w3.org/1999/xlink" x="0px" y="0px"
	 viewBox="0 0 80.8 68.7" style="enable-background:new 0 0 80.8 68.7;" xml:space="preserve">
<style type="text/css">
	.st0{fill:#00CECE;}
	.st1{opacity:0.5;}
</style>
<g>
	<g>
		<path class="st0" d="M69,26.4c-0.9,0-1.6-0.7-1.6-1.6c0-4.1-3.3-7.4-7.4-7.4c-0.8,0-1.5,0.1-2.2,0.3c-0.5,0.2-1.1,0.1-1.5-0.3
			c-0.4-0.3-0.7-0.9-0.6-1.4c0-0.1,0-0.2,0-0.3c0-2.4-1.9-4.3-4.3-4.3c-0.9,0-1.7,0.3-2.5,0.8c-0.4,0.3-0.9,0.4-1.4,0.2
			c-0.5-0.1-0.9-0.5-1.1-1c-1.8-4.9-6.6-8.1-11.8-8.1c-6.9,0-12.5,5.6-12.6,12.5c0,0.9-0.7,1.6-1.5,1.6c-3.9,0.2-6.9,3.5-6.9,7.4
			c0,0.9-0.7,1.6-1.6,1.6s-1.6-0.7-1.6-1.6c0-5.1,3.7-9.5,8.6-10.5C19.5,6.3,26.4,0,34.5,0c5.9,0,11.4,3.4,14.1,8.6
			c0.8-0.3,1.7-0.5,2.6-0.5c3.7,0,6.7,2.6,7.5,6c0.4,0,0.8-0.1,1.2-0.1c5.9,0,10.7,4.8,10.7,10.7C70.7,25.7,69.9,26.4,69,26.4z"/>
	</g>
	<g class="st1">
		<path class="st0" d="M60,35.5c-0.9,0-1.6-0.7-1.6-1.6s0.7-1.6,1.6-1.6c4.1,0,7.4-3.3,7.4-7.4c0-0.9,0.7-1.6,1.6-1.6
			s1.6,0.7,1.6,1.6C70.7,30.7,65.9,35.5,60,35.5z"/>
	</g>
	<g class="st1">
		<path class="st0" d="M20.9,35.5c-5.9,0-10.7-4.8-10.7-10.7c0-0.9,0.7-1.6,1.6-1.6s1.6,0.7,1.6,1.6c0,4.1,3.3,7.4,7.4,7.4
			c0.9,0,1.6,0.7,1.6,1.6S21.8,35.5,20.9,35.5z"/>
	</g>
	<g class="st1">
		<path class="st0" d="M53.5,53c-0.4,0-0.9-0.2-1.2-0.5l-6.3-6.7c-0.3-0.3-0.5-0.7-0.5-1.1V22.4c0-0.9,0.7-1.6,1.6-1.6
			s1.6,0.7,1.6,1.6V44l5.9,6.2c0.6,0.7,0.6,1.7-0.1,2.3C54.3,52.9,53.9,53,53.5,53z"/>
	</g>
	<g>
		<path class="st0" d="M39,45.3c-0.9,0-1.6-0.7-1.6-1.6v-23c0-0.9,0.7-1.6,1.6-1.6s1.6,0.7,1.6,1.6v23C40.7,44.6,39.9,45.3,39,45.3z
			"/>
	</g>
	<g class="st1">
		<path class="st0" d="M39,60.7c-0.9,0-1.6-0.7-1.6-1.6V42c0-0.9,0.7-1.6,1.6-1.6s1.6,0.7,1.6,1.6v17C40.7,59.9,39.9,60.7,39,60.7z"
			/>
	</g>
	<g class="st1">
		<path class="st0" d="M22.6,53.1c-0.2,0-0.4-0.1-0.6-0.1c-0.7-0.2-1.2-0.9-1.2-1.6c0-0.7,0.4-1.2,1-1.5c1-1.2,4-5.6,6.7-9.7V23
			c0-0.9,0.7-1.6,1.6-1.6s1.6,0.7,1.6,1.6v17.7c0,0.3-0.1,0.6-0.3,0.9C25,51.6,23.7,53.1,22.6,53.1z"/>
	</g>
	<g>
		<path class="st0" d="M60.6,35.5H21c-0.9,0-1.6-0.7-1.6-1.6s0.7-1.6,1.6-1.6h39.7c0.9,0,1.6,0.7,1.6,1.6S61.5,35.5,60.6,35.5z"/>
	</g>
	<g>
		<path class="st0" d="M19.5,60c-3.1,0-5.6-2.5-5.6-5.6s2.5-5.6,5.6-5.6s5.6,2.5,5.6,5.6S22.6,60,19.5,60z M19.5,52
			c-1.3,0-2.4,1.1-2.4,2.4s1.1,2.4,2.4,2.4s2.4-1.1,2.4-2.4S20.8,52,19.5,52z"/>
	</g>
	<g>
		<path class="st0" d="M56.1,60c-3.1,0-5.6-2.5-5.6-5.6s2.5-5.6,5.6-5.6s5.6,2.5,5.6,5.6S59.3,60,56.1,60z M56.1,52
			c-1.3,0-2.4,1.1-2.4,2.4s1.1,2.4,2.4,2.4s2.4-1.1,2.4-2.4S57.4,52,56.1,52z"/>
	</g>
	<g>
		<path class="st0" d="M39,68.7c-3.1,0-5.6-2.5-5.6-5.6c0-3.1,2.5-5.6,5.6-5.6s5.6,2.5,5.6,5.6C44.7,66.1,42.1,68.7,39,68.7z
			 M39,60.7c-1.3,0-2.4,1.1-2.4,2.4c0,1.3,1.1,2.4,2.4,2.4c1.3,0,2.3-1.1,2.3-2.4C41.4,61.7,40.3,60.7,39,60.7z"/>
	</g>
	<g>
		<path class="st0" d="M30.1,18.3c-0.9,0-1.6-0.7-1.6-1.6v-3.3c0-0.9,0.7-1.6,1.6-1.6s1.6,0.7,1.6,1.6v3.3
			C31.8,17.6,31,18.3,30.1,18.3z"/>
	</g>
</g>
</svg>
