<?xml version="1.0" encoding="utf-8"?>
<!-- Generator: Adobe Illustrator 24.2.0, SVG Export Plug-In . SVG Version: 6.00 Build 0)  -->
<svg version="1.1" id="Layer_1" xmlns="http://www.w3.org/2000/svg" xmlns:xlink="http://www.w3.org/1999/xlink" x="0px" y="0px"
	 viewBox="0 0 82 73" style="enable-background:new 0 0 82 73;" xml:space="preserve">
<style type="text/css">
	.st0{fill:#1E1E1E;}
	.st1{opacity:0.5;}
</style>
<g>
	<g>
		<g>
			<path class="st0" d="M23.9,29.8c-0.3,0-0.5-0.1-0.7-0.2l-4.9-2.8c-0.5-0.3-0.7-0.8-0.7-1.3c0-0.5,0.3-1,0.8-1.3l4.9-2.8
				c0.7-0.4,1.6-0.2,2,0.5c0.4,0.7,0.2,1.6-0.5,2L22,25.5l2.6,1.5c0.7,0.4,1,1.3,0.5,2C24.9,29.5,24.4,29.8,23.9,29.8z"/>
		</g>
		<g>
			<path class="st0" d="M35,29.8c-0.5,0-1-0.3-1.3-0.8c-0.4-0.7-0.2-1.6,0.5-2l2.6-1.5L34.2,24c-0.7-0.4-1-1.3-0.5-2s1.3-1,2-0.5
				l4.9,2.8c0.5,0.3,0.8,0.8,0.8,1.3c0,0.5-0.3,1-0.7,1.3l-4.9,2.8C35.5,29.7,35.3,29.8,35,29.8z"/>
		</g>
		<g>
			<path class="st0" d="M27.7,30.2c-0.2,0-0.5-0.1-0.7-0.2c-0.7-0.4-1-1.3-0.6-2l3.6-6.7c0.4-0.7,1.3-1,2-0.6c0.7,0.4,1,1.3,0.6,2
				l-3.6,6.7C28.8,29.9,28.3,30.2,27.7,30.2z"/>
		</g>
	</g>
	<g>
		<path class="st0" d="M59.5,39.4c-0.9,0-1.7-0.7-1.7-1.6V10.3c0-0.9-0.8-1.7-1.7-1.7H16.6c-0.9,0-1.7,0.8-1.7,1.7v21.9
			c0,0.9-0.7,1.6-1.6,1.6s-1.6-0.7-1.6-1.6V10.3c0-2.8,2.3-5,5-5h39.5c2.8,0,5,2.3,5,5v27.5C61.1,38.6,60.4,39.4,59.5,39.4z"/>
	</g>
	<g class="st1">
		<path class="st0" d="M33.9,54.8H16.6c-2.8,0-5-2.3-5-5V30.3c0-0.9,0.7-1.6,1.6-1.6s1.6,0.7,1.6,1.6v19.5c0,0.9,0.8,1.7,1.7,1.7
			h17.3c0.9,0,1.7,0.7,1.7,1.6S34.8,54.8,33.9,54.8z"/>
	</g>
	<g class="st1">
		<path class="st0" d="M54.1,18.6H13.2c-0.9,0-1.6-0.7-1.6-1.6s0.7-1.6,1.6-1.6h40.9c0.9,0,1.7,0.7,1.7,1.6S55.1,18.6,54.1,18.6z"/>
	</g>
	<g>
		<path class="st0" d="M23.1,36.4h-3.4c-0.9,0-1.6-0.7-1.6-1.6s0.7-1.6,1.6-1.6h3.4c0.9,0,1.6,0.7,1.6,1.6S24,36.4,23.1,36.4z"/>
	</g>
	<g>
		<path class="st0" d="M34.9,36.4h-6.2c-0.9,0-1.7-0.7-1.7-1.6s0.7-1.6,1.7-1.6h6.2c0.9,0,1.7,0.7,1.7,1.6S35.8,36.4,34.9,36.4z"/>
	</g>
	<g class="st1">
		<path class="st0" d="M31.1,42h-6c-0.9,0-1.6-0.7-1.6-1.6s0.7-1.6,1.6-1.6h6c0.9,0,1.7,0.7,1.7,1.6S32,42,31.1,42z"/>
	</g>
	<g class="st1">
		<path class="st0" d="M26.9,47.9h-7.6c-0.9,0-1.6-0.7-1.6-1.6s0.7-1.6,1.6-1.6h7.6c0.9,0,1.7,0.7,1.7,1.6S27.8,47.9,26.9,47.9z"/>
	</g>
	<g>
		<path class="st0" d="M32.7,47.9h-1.8c-0.9,0-1.7-0.7-1.7-1.6s0.7-1.6,1.7-1.6h1.8c0.9,0,1.7,0.7,1.7,1.6S33.6,47.9,32.7,47.9z"/>
	</g>
	<g>
		<g>
			<path class="st0" d="M54.1,59.5L54.1,59.5c-2.1,0-4.2-0.8-5.7-2.4c-1.5-1.5-2.4-3.5-2.4-5.7c0-2.1,0.8-4.2,2.4-5.7
				c1.5-1.5,3.5-2.4,5.7-2.4s4.2,0.8,5.7,2.4c1.5,1.5,2.4,3.5,2.4,5.7c0,2.1-0.8,4.2-2.4,5.7C58.3,58.7,56.3,59.5,54.1,59.5z
				 M54.1,46.2c-1.4,0-2.7,0.5-3.7,1.5c-1,1-1.5,2.3-1.5,3.7c0,1.4,0.5,2.7,1.5,3.7c1,1,2.3,1.5,3.7,1.5h0c1.4,0,2.7-0.5,3.7-1.5
				c0,0,0,0,0,0c1-1,1.5-2.3,1.5-3.7c0-1.4-0.5-2.7-1.5-3.7C56.8,46.8,55.5,46.2,54.1,46.2z"/>
		</g>
		<g class="st1">
			<path class="st0" d="M56.5,67.8h-4.6c-0.4,0-0.7-0.1-1-0.4c-0.3-0.3-0.4-0.6-0.4-1l0-2.5c-0.9-0.3-1.7-0.6-2.5-1l-1.7,1.7
				c-0.5,0.5-1.5,0.5-2,0L41,61.4c-0.5-0.5-0.5-1.4,0-2l1.7-1.7c-0.4-0.8-0.8-1.6-1-2.5h-2.5c-0.8,0-1.4-0.6-1.4-1.4l0-4.6
				c0-0.4,0.1-0.7,0.4-1s0.6-0.4,1-0.4h2.5c0.3-0.9,0.6-1.7,1-2.5L41,43.5c-0.5-0.5-0.5-1.4,0-2c0.5-0.5,1.4-0.5,2,0l2.5,2.5
				c0.5,0.5,0.5,1.2,0.2,1.8c-0.7,1.1-1.2,2.3-1.5,3.6c-0.1,0.7-0.7,1.1-1.4,1.1h-2.1l0,1.8h2.1c0.7,0,1.2,0.5,1.4,1.1
				c0.3,1.3,0.8,2.5,1.5,3.6c0.4,0.6,0.3,1.3-0.2,1.8l-1.5,1.5l1.3,1.3l1.5-1.5c0.5-0.5,1.2-0.5,1.8-0.2c1.1,0.7,2.3,1.2,3.6,1.5
				c0.7,0.1,1.1,0.7,1.1,1.4l0,2.1h1.8l0-2.1c0-0.7,0.5-1.2,1.1-1.4c1.3-0.3,2.5-0.8,3.6-1.5c0.6-0.4,1.3-0.3,1.8,0.2l1.5,1.5
				l2.3-2.3c0.5-0.5,1.4-0.5,2,0c0.5,0.5,0.5,1.4,0,2L64,64.6c-0.5,0.5-1.4,0.5-2,0l-1.7-1.7c-0.8,0.4-1.6,0.8-2.5,1l0,2.5
				c0,0.4-0.1,0.7-0.4,1S56.8,67.8,56.5,67.8z"/>
		</g>
		<g>
			<path class="st0" d="M66.3,61.8c-0.4,0-0.7-0.1-1-0.4l-2.5-2.5c-0.5-0.5-0.5-1.2-0.2-1.8c0.7-1.1,1.2-2.3,1.5-3.6
				c0.1-0.7,0.7-1.1,1.4-1.1h2.1v-1.8h-2.1c-0.7,0-1.2-0.5-1.4-1.1c-0.3-1.3-0.8-2.5-1.5-3.6c-0.4-0.6-0.3-1.3,0.2-1.8l1.5-1.5
				L63,41.3l-1.5,1.5c-0.5,0.5-1.2,0.5-1.8,0.2c-1.1-0.7-2.3-1.2-3.6-1.5c-0.7-0.1-1.1-0.7-1.1-1.4l0-2.1h-1.8v2.1
				c0,0.7-0.5,1.2-1.1,1.4c-1.3,0.3-2.5,0.8-3.6,1.5c-0.6,0.4-1.3,0.3-1.8-0.2l-1.5-1.5l-2.3,2.3c-0.5,0.5-1.4,0.5-2,0s-0.5-1.4,0-2
				l3.3-3.3c0.3-0.3,0.6-0.4,1-0.4c0,0,0,0,0,0c0.4,0,0.7,0.1,1,0.4L48,40c0.8-0.4,1.6-0.8,2.5-1v-2.5c0-0.8,0.6-1.4,1.4-1.4h4.6
				c0.8,0,1.4,0.6,1.4,1.4l0,2.5c0.9,0.3,1.7,0.6,2.5,1l1.7-1.7c0.5-0.5,1.5-0.5,2,0l3.3,3.3c0.5,0.5,0.5,1.4,0,2l-1.7,1.7
				c0.4,0.8,0.8,1.6,1,2.5H69c0.8,0,1.4,0.6,1.4,1.4v4.6c0,0.8-0.6,1.4-1.4,1.4h-2.5c-0.3,0.9-0.6,1.7-1,2.5l1.7,1.7
				c0.5,0.5,0.5,1.4,0,2C67,61.6,66.7,61.8,66.3,61.8z"/>
		</g>
	</g>
	<g class="st1">
		<path class="st0" d="M53.1,13.1h-2.8c-0.6,0-1-0.4-1-1s0.4-1,1-1h2.8c0.6,0,1,0.4,1,1S53.6,13.1,53.1,13.1z"/>
	</g>
	<g class="st1">
		<path class="st0" d="M47.1,13.1h-2.8c-0.6,0-1-0.4-1-1s0.4-1,1-1h2.8c0.6,0,1,0.4,1,1S47.6,13.1,47.1,13.1z"/>
	</g>
	<g class="st1">
		<path class="st0" d="M40.5,13.1h-2.8c-0.6,0-1-0.4-1-1s0.4-1,1-1h2.8c0.6,0,1,0.4,1,1S41.1,13.1,40.5,13.1z"/>
	</g>
</g>
</svg>
