<?xml version="1.0" encoding="utf-8"?>
<!-- Generator: Adobe Illustrator 24.2.0, SVG Export Plug-In . SVG Version: 6.00 Build 0)  -->
<svg version="1.1" id="Layer_1" xmlns="http://www.w3.org/2000/svg" xmlns:xlink="http://www.w3.org/1999/xlink" x="0px" y="0px"
	 viewBox="0 0 80.8 68.7" style="enable-background:new 0 0 80.8 68.7;" xml:space="preserve">
<style type="text/css">
	.st0{fill:none;stroke:#00CECE;stroke-width:3.3;stroke-linecap:round;stroke-linejoin:round;stroke-miterlimit:10;}
	.st1{fill:#00CECE;}
	.st2{opacity:0.5;fill:#00CECE;}
</style>
<g>
	<path class="st0" d="M14.6,36l2.4,2.4c0.8,0.8,0.8,2.1,0,2.8c-0.8,0.8-2,0.8-2.8,0l-2.4-2.4c-0.9,2-0.6,4.4,0.9,6
		c2,2,5.5,1.9,7.6-0.2c2.2-2.2,2.3-5.6,0.2-7.6C19,35.4,16.6,35.1,14.6,36z"/>
	<path class="st0" d="M33.9,61l-2.4-2.4c-0.8-0.8-0.8-2.1,0-2.8c0.8-0.8,2.1-0.8,2.8,0l2.4,2.4c0.9-2,0.6-4.4-0.9-6
		c-2-2-5.5-1.9-7.6,0.2C26,54.6,25.9,58,28,60.1C29.5,61.7,31.9,62,33.9,61z"/>
	<line class="st0" x1="18.9" y1="46.2" x2="26.9" y2="54.2"/>
	<line class="st0" x1="21.9" y1="43.2" x2="29.9" y2="51.2"/>
	<g>
		<circle class="st1" cx="9.7" cy="21.7" r="1.9"/>
		<circle class="st1" cx="15.1" cy="21.7" r="1.9"/>
		<circle class="st1" cx="20.5" cy="21.7" r="1.9"/>
	</g>
	<g>
		<path class="st1" d="M49.9,44.8c-8.9,0-16.1-7.2-16.1-16.1c0-8.9,7.2-16.1,16.1-16.1S66,19.8,66,28.7C66,37.5,58.8,44.8,49.9,44.8
			z M49.9,16c-7,0-12.6,5.7-12.6,12.6c0,7,5.7,12.6,12.6,12.6s12.6-5.7,12.6-12.6C62.5,21.7,56.9,16,49.9,16z"/>
	</g>
	<path class="st1" d="M67.4,25.2c-0.8,0-1.4-0.6-1.4-1.4c0-8.2-7.2-14.9-16.1-14.9c-8.9,0-16.1,6.7-16.1,14.9c0,0.8-0.6,1.4-1.4,1.4
		c-0.8,0-1.4-0.6-1.4-1.4C31,14,39.5,6,49.9,6c10.4,0,18.9,8,18.9,17.8C68.8,24.6,68.2,25.2,67.4,25.2z"/>
	<g>
		<path class="st1" d="M33.7,35.5c-3.8,0-6.9-3.1-6.9-6.9s3.1-6.9,6.9-6.9V35.5z"/>
		<path class="st1" d="M66.1,35.5c3.8,0,6.9-3.1,6.9-6.9s-3.1-6.9-6.9-6.9V35.5z"/>
	</g>
	<path class="st2" d="M49.9,38.5c-4.2,0-7.6-3.4-7.6-7.6c0-0.6,0.5-1.1,1.1-1.1c0.6,0,1.1,0.5,1.1,1.1c0,3,2.4,5.4,5.4,5.4
		c3,0,5.4-2.4,5.4-5.4c0-0.6,0.5-1.1,1.1-1.1c0.6,0,1.1,0.5,1.1,1.1C57.5,35.1,54.1,38.5,49.9,38.5z"/>
	<path class="st2" d="M67.6,51.4H55.4c-0.8,0-1.4-0.6-1.4-1.4c0-0.8,0.6-1.4,1.4-1.4h10.8v-14c0-0.8,0.6-1.4,1.4-1.4
		c0.8,0,1.4,0.6,1.4,1.4V50C68.9,50.8,68.3,51.4,67.6,51.4z"/>
	<path class="st1" d="M56.3,50.1c0,1.8-1.4,3.2-3.2,3.2c-1.8,0-3.2-1.4-3.2-3.2c0-1.8,1.4-3.2,3.2-3.2
		C54.9,46.9,56.3,48.4,56.3,50.1z"/>
	<path class="st1" d="M49.9,41.4c-4.8,0-9.2,1.7-12.6,4.6c0,0,0,0.1,0,0.1c0,0-1.9,1.4-0.6,2.8c1,1.3,3-0.4,3-0.4c0,0,0,0,0.1,0
		c2.8-2.2,6.3-3.6,10.1-3.6c8.8,0,16,7.1,16.1,16c0,0.9,0.6,1.7,1.5,1.9c1.1,0.2,2-0.7,2-1.7C69.5,50.1,60.7,41.4,49.9,41.4z"/>
</g>
</svg>
