<?xml version="1.0" encoding="utf-8"?>
<!-- Generator: Adobe Illustrator 24.2.0, SVG Export Plug-In . SVG Version: 6.00 Build 0)  -->
<svg version="1.1" id="Layer_1" xmlns="http://www.w3.org/2000/svg" xmlns:xlink="http://www.w3.org/1999/xlink" x="0px" y="0px"
	 viewBox="0 0 82 73" style="enable-background:new 0 0 82 73;" xml:space="preserve">
<style type="text/css">
	.st0{fill:#1E1E1E;}
	.st1{opacity:0.5;}
	.st2{fill:none;stroke:#57B356;stroke-width:3.3;stroke-linecap:round;stroke-linejoin:round;stroke-miterlimit:10;}
</style>
<g>
	<g>
		<g>
			<g>
				<path class="st0" d="M20.6,62.2c-0.4,0-0.9-0.2-1.2-0.5c-0.6-0.7-0.6-1.7,0.1-2.3l8-7.3c1.2-1.1,3.4-2,5.1-2l17.6,0
					c2.2,0,3.9,1.7,3.9,3.8c0,2.1-1.8,3.8-3.9,3.8l-9.7,0c0,0,0,0,0,0c-0.2,0-0.4,0.1-0.5,0.2c-0.1,0.1-0.1,0.1-0.1,0.3
					c0,0.9-0.7,1.6-1.6,1.6s-1.6-0.7-1.6-1.6c0-1,0.4-1.9,1.1-2.6c0.7-0.7,1.8-1.2,2.8-1.2c0,0,0,0,0,0l9.7,0c0.4,0,0.6-0.2,0.6-0.5
					c0-0.2-0.3-0.5-0.6-0.5l-17.6,0c-0.8,0-2.2,0.5-2.8,1.1l-8,7.3C21.4,62.1,21,62.2,20.6,62.2z"/>
			</g>
			<g>
				<path class="st0" d="M28,72.7c-0.5,0-1-0.2-1.3-0.6c-0.6-0.7-0.4-1.8,0.3-2.3l4.6-3.6c1.3-1,3.5-1.8,5.1-1.8l15.3,0
					c0.9,0,2.3-0.5,3-1.1l10.4-8.7c0.3-0.2,0.3-0.7,0.1-1c-0.2-0.2-0.3-0.2-0.4-0.2c-0.1,0-0.3,0-0.4,0.1l-8.3,6.6
					c-1.3,1-3.5,1.8-5.1,1.8l-10.9,0c-2.2,0-3.9-1.7-3.9-3.8c0-0.9,0.7-1.6,1.6-1.6s1.6,0.7,1.6,1.6c0,0.2,0.3,0.5,0.6,0.5l10.9,0
					c0.9,0,2.4-0.5,3-1.1l8.3-6.6c0.8-0.7,1.9-0.9,2.9-0.8c1,0.1,2,0.6,2.6,1.5c1.3,1.7,1.1,4.2-0.6,5.6l-10.4,8.7
					c-1.3,1.1-3.4,1.9-5.1,1.9l-15.3,0c-0.9,0-2.4,0.5-3.1,1.1l-4.6,3.6C28.8,72.6,28.4,72.7,28,72.7z"/>
			</g>
		</g>
	</g>
	<g>
		<g>
			<g class="st1">
				<path class="st0" d="M59.4,24.8c-0.9,0-1.7-0.7-1.7-1.6c0-4.3-3.5-7.8-7.8-7.8c-4.3,0-7.8,3.5-7.8,7.8c0,0.9-0.7,1.6-1.6,1.6
					s-1.6-0.7-1.6-1.6c0-6.1,5-11.1,11.1-11.1c6.1,0,11.1,5,11.1,11.1C61.1,24,60.3,24.8,59.4,24.8z"/>
			</g>
			<g>
				<path class="st0" d="M49.9,34.8c-6.1,0-11.1-5-11.1-11.1c0-0.9,0.7-1.6,1.6-1.6s1.6,0.7,1.6,1.6c0,4.3,3.5,7.8,7.8,7.8
					c4.3,0,7.8-3.5,7.8-7.8c0-0.9,0.7-1.6,1.7-1.6s1.7,0.7,1.7,1.6C61,29.8,56,34.7,49.9,34.8z"/>
			</g>
			<g class="st1">
				<path class="st0" d="M33.8,21.5h-5c-0.9,0-1.6-0.7-1.6-1.6s0.7-1.6,1.6-1.6h3.7c0.4-1.4,0.9-2.7,1.6-3.9l-2.6-2.6
					c-0.3-0.3-0.5-0.7-0.5-1.2c0-0.4,0.2-0.9,0.5-1.2l4.7-4.7c0.6-0.6,1.7-0.6,2.3,0l2.6,2.6c1.2-0.7,2.5-1.2,3.9-1.6V1.9
					c0-0.9,0.7-1.6,1.6-1.6s1.6,0.7,1.6,1.6v5c0,0.8-0.6,1.5-1.3,1.6c-1.9,0.4-3.6,1.1-5.2,2.2c-0.7,0.4-1.5,0.3-2.1-0.2l-2.4-2.4
					L35,10.5l2.4,2.4c0.6,0.6,0.6,1.4,0.2,2.1c-1.1,1.6-1.8,3.3-2.2,5.2C35.3,20.9,34.6,21.5,33.8,21.5z"/>
			</g>
			<g>
				<path class="st0" d="M71.2,28.1c-0.9,0-1.7-0.7-1.7-1.6v-4.9h-3.4c-0.8,0-1.5-0.6-1.6-1.3c-0.4-1.9-1.1-3.6-2.2-5.2
					c-0.4-0.7-0.3-1.5,0.2-2.1l2.4-2.4l-2.3-2.3l-2.4,2.4c-0.6,0.6-1.4,0.6-2.1,0.2C56.6,9.7,54.8,9,53,8.6
					c-0.8-0.2-1.3-0.8-1.3-1.6V3.6h-4.9c-0.9,0-1.6-0.7-1.6-1.6s0.7-1.6,1.6-1.6h6.6c0.9,0,1.7,0.7,1.7,1.6v3.7
					c1.4,0.4,2.7,0.9,3.9,1.6l2.6-2.6c0.6-0.6,1.7-0.6,2.3,0l4.7,4.7c0.6,0.6,0.6,1.7,0,2.3l-2.6,2.6c0.7,1.2,1.2,2.5,1.6,3.9h3.7
					c0.9,0,1.7,0.7,1.7,1.6v6.6C72.8,27.3,72.1,28.1,71.2,28.1z"/>
			</g>
			<g class="st1">
				<path class="st0" d="M53.3,46h-6.6c-0.9,0-1.6-0.7-1.6-1.6v-3.7c-1.4-0.4-2.7-0.9-3.9-1.6l-2.6,2.6c-0.6,0.6-1.7,0.6-2.3,0
					L31.5,37c-0.6-0.6-0.6-1.7,0-2.3l2.6-2.6c-0.7-1.2-1.2-2.5-1.6-3.9H10.8c-0.9,0-1.6-0.7-1.6-1.6s0.7-1.6,1.6-1.6h23
					c0.8,0,1.5,0.6,1.6,1.3c0.4,1.9,1.1,3.6,2.2,5.2c0.4,0.7,0.3,1.5-0.2,2.1L35,35.8l2.3,2.3l2.4-2.4c0.6-0.6,1.4-0.6,2.1-0.2
					c1.6,1.1,3.3,1.8,5.2,2.2c0.8,0.2,1.3,0.8,1.3,1.6v3.4h4.9c0.9,0,1.7,0.7,1.7,1.6S54.2,46,53.3,46z"/>
			</g>
			<g>
				<path class="st0" d="M53.3,46c-0.9,0-1.7-0.7-1.7-1.6v-5c0-0.8,0.6-1.5,1.3-1.6c1.9-0.4,3.6-1.1,5.2-2.2
					c0.7-0.4,1.5-0.3,2.1,0.2l2.4,2.4l2.3-2.3l-2.4-2.4c-0.6-0.6-0.6-1.4-0.2-2.1c1.1-1.6,1.8-3.3,2.2-5.2c0.2-0.8,0.8-1.3,1.6-1.3
					h5c0.9,0,1.7,0.7,1.7,1.6s-0.7,1.6-1.7,1.6h-3.7c-0.4,1.4-0.9,2.7-1.6,3.9l2.6,2.6c0.6,0.6,0.6,1.7,0,2.3l-4.7,4.7
					c-0.6,0.6-1.7,0.6-2.3,0L58.8,39c-1.2,0.7-2.5,1.2-3.9,1.6v3.7C54.9,45.2,54.2,46,53.3,46z"/>
			</g>
		</g>
		<g>
			<g>
				<path class="st2" d="M17.7,40.8"/>
			</g>
		</g>
		<g class="st1">
			<path class="st0" d="M29.9,21.5h-12c-0.9,0-1.6-0.7-1.6-1.6s0.7-1.6,1.6-1.6h12c0.9,0,1.6,0.7,1.6,1.6S30.8,21.5,29.9,21.5z"/>
		</g>
		<g class="st1">
			<path class="st0" d="M29.3,8.3h-7.2c-0.9,0-1.6-0.7-1.6-1.6S21.2,5,22.1,5h7.2c0.9,0,1.6,0.7,1.6,1.6S30.2,8.3,29.3,8.3z"/>
		</g>
	</g>
</g>
</svg>
