<?xml version="1.0" encoding="utf-8"?>
<!-- Generator: Adobe Illustrator 24.2.0, SVG Export Plug-In . SVG Version: 6.00 Build 0)  -->
<svg version="1.1" id="Layer_1" xmlns="http://www.w3.org/2000/svg" xmlns:xlink="http://www.w3.org/1999/xlink" x="0px" y="0px"
	 viewBox="0 0 80.8 68.7" style="enable-background:new 0 0 80.8 68.7;" xml:space="preserve">
<style type="text/css">
	.st0{fill:#00CECE;}
	.st1{opacity:0.5;}
</style>
<g>
	<g>
		<path class="st0" d="M79.2,44.4c-0.4,0-0.8-0.1-1.1-0.4l-6.7-6v0.3c0,0.9-0.7,1.6-1.7,1.6H54.8c-0.9,0-1.7-0.7-1.7-1.6
			s0.7-1.6,1.7-1.6H68v-2.3c0-0.6,0.4-1.2,1-1.5c0.6-0.3,1.3-0.2,1.8,0.3l9.5,8.4c0.7,0.6,0.7,1.6,0.1,2.3
			C80.1,44.3,79.6,44.4,79.2,44.4z"/>
	</g>
	<g>
		<path class="st0" d="M69.7,52.8c-0.2,0-0.5,0-0.7-0.1c-0.6-0.3-1-0.9-1-1.5v-2.3H54.8c-0.9,0-1.7-0.7-1.7-1.6s0.7-1.6,1.7-1.6
			h14.9c0.9,0,1.7,0.7,1.7,1.6v0.3l6.7-6c0.7-0.6,1.7-0.5,2.3,0.1c0.6,0.7,0.5,1.7-0.1,2.3l-9.5,8.4C70.5,52.7,70.1,52.8,69.7,52.8z
			"/>
	</g>
	<g>
		<g>
			<path class="st0" d="M49.4,33.3c-0.5,0-1-0.2-1.3-0.7c-0.6-0.7-0.4-1.8,0.3-2.3l3.5-2.7l-3.5-2.7c-0.7-0.6-0.9-1.6-0.3-2.3
				c0.5-0.7,1.6-0.9,2.3-0.3l5.3,4c0.4,0.3,0.7,0.8,0.7,1.3c0,0.5-0.2,1-0.7,1.3l-5.3,4C50.1,33.2,49.7,33.3,49.4,33.3z"/>
		</g>
		<g>
			<path class="st0" d="M52,29.3H40c-0.9,0-1.7-0.7-1.7-1.6S39.1,26,40,26h12c0.9,0,1.7,0.7,1.7,1.6S52.9,29.3,52,29.3z"/>
		</g>
	</g>
	<g>
		<g>
			<path class="st0" d="M30.9,22.5c-0.5,0-1-0.2-1.3-0.7c-0.6-0.7-0.4-1.8,0.3-2.3l3.5-2.7l-3.5-2.7c-0.7-0.6-0.9-1.6-0.3-2.3
				c0.5-0.7,1.6-0.9,2.3-0.3l5.3,4c0.4,0.3,0.7,0.8,0.7,1.3c0,0.5-0.2,1-0.7,1.3l-5.3,4C31.6,22.4,31.2,22.5,30.9,22.5z"/>
		</g>
		<g>
			<path class="st0" d="M33.5,18.5h-12c-0.9,0-1.7-0.7-1.7-1.6c0-0.9,0.7-1.6,1.7-1.6h12c0.9,0,1.7,0.7,1.7,1.6
				C35.2,17.7,34.4,18.5,33.5,18.5z"/>
		</g>
	</g>
	<g>
		<path class="st0" d="M40.6,57.5c-0.9,0-1.7-0.7-1.7-1.6s0.7-1.6,1.7-1.6c4.2,0,7.7-3.5,7.7-7.7c0-4.2-3.5-7.7-7.7-7.7
			c-1.7,0-3.4,0.6-4.8,1.7c-0.7,0.6-1.8,0.4-2.3-0.3c-0.6-0.7-0.4-1.8,0.3-2.3c2-1.5,4.3-2.4,6.8-2.4c6.1,0,11,4.9,11,11
			C51.6,52.5,46.7,57.5,40.6,57.5z"/>
	</g>
	<g class="st1">
		<path class="st0" d="M9.5,57.6c-4.9,0-9-4-9-9c0-4.9,4-9,9-9c3.4,0,6.5,1.9,8,5c0.4,0.8,0.1,1.8-0.7,2.2c-0.8,0.4-1.8,0.1-2.2-0.7
			c-1-1.9-2.9-3.2-5.1-3.2c-3.1,0-5.7,2.5-5.7,5.7c0,3.1,2.5,5.7,5.7,5.7c0.9,0,1.7,0.7,1.7,1.6S10.4,57.6,9.5,57.6z"/>
	</g>
	<g>
		<path class="st0" d="M11,43c-0.9,0-1.6-0.7-1.6-1.5c0-0.4,0-0.8,0-1.3c0-9.2,7.5-16.6,16.6-16.6c7.8,0,14.5,5.3,16.2,12.9
			c0.2,0.9-0.3,1.8-1.2,2c-0.9,0.2-1.8-0.3-2-1.2c-1.4-6.1-6.8-10.3-13-10.3c-7.4,0-13.3,6-13.3,13.3c0,0.3,0,0.7,0,1
			c0.1,0.9-0.6,1.7-1.5,1.8C11,43,11,43,11,43z"/>
	</g>
	<g>
		<path class="st0" d="M61.6,57.6H8.9c-0.9,0-1.7-0.7-1.7-1.6s0.7-1.6,1.7-1.6h52.7c0.9,0,1.7,0.7,1.7,1.6S62.5,57.6,61.6,57.6z"/>
	</g>
	<g class="st1">
		<path class="st0" d="M12.2,36.2H2.9c-0.9,0-1.7-0.7-1.7-1.6s0.7-1.6,1.7-1.6h9.2c0.9,0,1.7,0.7,1.7,1.6S13.1,36.2,12.2,36.2z"/>
	</g>
	<g>
		<path class="st0" d="M20.4,36.2h-3.2c-0.9,0-1.7-0.7-1.7-1.6s0.7-1.6,1.7-1.6h3.2c0.9,0,1.7,0.7,1.7,1.6S21.3,36.2,20.4,36.2z"/>
	</g>
	<g>
		<path class="st0" d="M9.4,51H1.7C0.8,51,0,50.2,0,49.3s0.7-1.6,1.7-1.6h7.8c0.9,0,1.7,0.7,1.7,1.6S10.3,51,9.4,51z"/>
	</g>
	<g>
		<path class="st0" d="M18.7,51h-4c-0.9,0-1.7-0.7-1.7-1.6s0.7-1.6,1.7-1.6h4c0.9,0,1.7,0.7,1.7,1.6S19.6,51,18.7,51z"/>
	</g>
	<g class="st1">
		<path class="st0" d="M34.7,51h-9.8c-0.9,0-1.7-0.7-1.7-1.6s0.7-1.6,1.7-1.6h9.8c0.9,0,1.7,0.7,1.7,1.6S35.6,51,34.7,51z"/>
	</g>
</g>
</svg>
