<?xml version="1.0" encoding="utf-8"?>
<!-- Generator: Adobe Illustrator 24.2.0, SVG Export Plug-In . SVG Version: 6.00 Build 0)  -->
<svg version="1.1" id="Layer_1" xmlns="http://www.w3.org/2000/svg" xmlns:xlink="http://www.w3.org/1999/xlink" x="0px" y="0px"
	 viewBox="0 0 80.8 68.7" style="enable-background:new 0 0 80.8 68.7;" xml:space="preserve">
<style type="text/css">
	.st0{fill:#00CECE;}
	.st1{opacity:0.5;}
</style>
<g>
	<g>
		<g>
			<path class="st0" d="M56.9,41.4c-0.9,0-1.7-0.7-1.7-1.6s0.7-1.6,1.7-1.6c5,0,9.1-4.1,9.1-9.1s-4.1-9.1-9.1-9.1
				c-2.1,0-4,0.7-5.7,2c-0.7,0.6-1.8,0.4-2.3-0.3c-0.6-0.7-0.4-1.8,0.3-2.3c2.2-1.7,4.9-2.7,7.7-2.7c6.9,0,12.4,5.6,12.4,12.4
				S63.7,41.4,56.9,41.4z"/>
		</g>
		<g class="st1">
			<path class="st0" d="M20.9,41.5c-5.6,0-10.1-4.5-10.1-10.1s4.5-10.1,10.1-10.1c3.9,0,7.3,2.2,9,5.6c0.4,0.8,0.1,1.8-0.7,2.2
				c-0.8,0.4-1.8,0.1-2.2-0.7c-1.2-2.3-3.5-3.8-6.1-3.8c-3.7,0-6.8,3-6.8,6.8s3,6.8,6.8,6.8c0.9,0,1.7,0.7,1.7,1.6
				S21.8,41.5,20.9,41.5z"/>
		</g>
		<g>
			<path class="st0" d="M22.6,24.7c-0.9,0-1.6-0.7-1.6-1.5c0-0.5-0.1-1-0.1-1.4c0-10.5,8.5-19,19-19c8.9,0,16.5,6,18.5,14.7
				c0.2,0.9-0.3,1.8-1.2,2c-0.9,0.2-1.8-0.3-2-1.2C53.5,11,47.2,6,39.9,6c-8.6,0-15.7,7-15.7,15.7c0,0.4,0,0.8,0,1.2
				c0.1,0.9-0.6,1.7-1.5,1.8C22.7,24.7,22.7,24.7,22.6,24.7z"/>
		</g>
	</g>
	<g>
		<path class="st0" d="M18.2,55.1c-3.5,0-6.3-2.8-6.3-6.3c0-3.5,2.8-6.3,6.3-6.3c3.5,0,6.3,2.8,6.3,6.3
			C24.5,52.3,21.7,55.1,18.2,55.1z M18.2,45.8c-1.7,0-3,1.4-3,3c0,1.7,1.3,3,3,3c1.7,0,3-1.3,3-3C21.2,47.1,19.8,45.8,18.2,45.8z"/>
	</g>
	<g class="st1">
		<g>
			<path class="st0" d="M9.8,66c-0.9,0-1.6-0.7-1.6-1.6V59c0.1-3,2.4-4.1,4-4.2h1.8v-1.8c0-0.9,0.7-1.6,1.6-1.6s1.7,0.7,1.7,1.6v3.4
				c0,0.9-0.7,1.6-1.7,1.6h-3.4c-0.7,0.1-0.7,0.6-0.7,0.9l0,5.2C11.4,65.2,10.7,66,9.8,66z"/>
		</g>
		<g>
			<path class="st0" d="M26.6,66c-0.9,0-1.7-0.7-1.7-1.6V59c0-0.2,0-0.8-0.8-0.9l-3.3,0c-0.9,0-1.7-0.7-1.7-1.6v-3.4
				c0-0.9,0.7-1.6,1.7-1.6s1.7,0.7,1.7,1.6v1.8h1.8c1.6,0,3.9,1.2,4,4.1l0,5.3C28.2,65.2,27.5,66,26.6,66z"/>
		</g>
	</g>
	<g class="st1">
		<path class="st0" d="M13.8,66c-0.9,0-1.6-0.7-1.6-1.6v-3.7c0-0.9,0.7-1.6,1.6-1.6s1.7,0.7,1.7,1.6v3.7C15.5,65.2,14.8,66,13.8,66z
			"/>
	</g>
	<g class="st1">
		<path class="st0" d="M22.4,66c-0.9,0-1.7-0.7-1.7-1.6v-3.7c0-0.9,0.7-1.6,1.7-1.6s1.7,0.7,1.7,1.6v3.7C24,65.2,23.3,66,22.4,66z"
			/>
	</g>
	<g>
		<path class="st0" d="M62.7,55.1c-3.5,0-6.3-2.8-6.3-6.3c0-3.5,2.8-6.3,6.3-6.3c3.5,0,6.3,2.8,6.3,6.3C69,52.3,66.2,55.1,62.7,55.1
			z M62.7,45.8c-1.7,0-3,1.4-3,3c0,1.7,1.3,3,3,3c1.7,0,3-1.3,3-3C65.7,47.1,64.3,45.8,62.7,45.8z"/>
	</g>
	<g class="st1">
		<g>
			<path class="st0" d="M54.3,66c-0.9,0-1.7-0.7-1.7-1.6V59c0.1-3,2.4-4.1,4-4.2h1.8v-1.8c0-0.9,0.7-1.6,1.7-1.6s1.7,0.7,1.7,1.6
				v3.4c0,0.9-0.7,1.6-1.7,1.6h-3.4c-0.7,0.1-0.7,0.6-0.7,0.9l0,5.2C55.9,65.2,55.2,66,54.3,66z"/>
		</g>
		<g>
			<path class="st0" d="M71.1,66c-0.9,0-1.7-0.7-1.7-1.6V59c0-0.2,0-0.8-0.8-0.9l-3.3,0c-0.9,0-1.7-0.7-1.7-1.6v-3.4
				c0-0.9,0.7-1.6,1.7-1.6s1.7,0.7,1.7,1.6v1.8h1.8c1.6,0,3.9,1.2,4,4.1l0,5.3C72.7,65.2,72,66,71.1,66z"/>
		</g>
	</g>
	<g class="st1">
		<path class="st0" d="M58.3,66c-0.9,0-1.7-0.7-1.7-1.6v-3.7c0-0.9,0.7-1.6,1.7-1.6s1.7,0.7,1.7,1.6v3.7C60,65.2,59.3,66,58.3,66z"
			/>
	</g>
	<g class="st1">
		<path class="st0" d="M66.9,66c-0.9,0-1.7-0.7-1.7-1.6v-3.7c0-0.9,0.7-1.6,1.7-1.6s1.7,0.7,1.7,1.6v3.7C68.5,65.2,67.8,66,66.9,66z
			"/>
	</g>
	<g>
		<path class="st0" d="M40.4,53c-4,0-7.2-3.2-7.2-7.2s3.2-7.2,7.2-7.2s7.2,3.2,7.2,7.2S44.4,53,40.4,53z M40.4,41.8
			c-2.2,0-3.9,1.8-3.9,3.9s1.8,3.9,3.9,3.9s3.9-1.8,3.9-3.9S42.5,41.8,40.4,41.8z"/>
	</g>
	<g class="st1">
		<g>
			<path class="st0" d="M30.3,66c-0.9,0-1.7-0.7-1.7-1.6V58c0.1-3.3,2.7-4.6,4.4-4.6l2.5,0v-2.4c0-0.9,0.7-1.6,1.7-1.6
				s1.7,0.7,1.7,1.6V55c0,0.9-0.7,1.6-1.7,1.6h-4.1C32.4,56.7,32,57.1,32,58l0,6.3C32,65.2,31.2,66,30.3,66z"/>
		</g>
		<g>
			<path class="st0" d="M50.4,66c-0.9,0-1.7-0.7-1.7-1.6V58c0-1.2-0.9-1.3-1.2-1.4l-4,0c-0.9,0-1.7-0.7-1.7-1.6v-4.1
				c0-0.9,0.7-1.6,1.7-1.6s1.7,0.7,1.7,1.6v2.4h2.4c1.8,0.1,4.4,1.3,4.5,4.6l0,6.4C52.1,65.2,51.3,66,50.4,66z"/>
		</g>
	</g>
	<g class="st1">
		<path class="st0" d="M35.2,66c-0.9,0-1.7-0.7-1.7-1.6v-4.7c0-0.9,0.7-1.6,1.7-1.6s1.7,0.7,1.7,1.6v4.7C36.8,65.2,36.1,66,35.2,66z
			"/>
	</g>
	<g class="st1">
		<path class="st0" d="M45.4,66c-0.9,0-1.7-0.7-1.7-1.6v-4.7c0-0.9,0.7-1.6,1.7-1.6s1.7,0.7,1.7,1.6v4.7C47.1,65.2,46.3,66,45.4,66z
			"/>
	</g>
</g>
</svg>
