<?xml version="1.0" encoding="utf-8"?>
<!-- Generator: Adobe Illustrator 24.2.0, SVG Export Plug-In . SVG Version: 6.00 Build 0)  -->
<svg version="1.1" id="Layer_1" xmlns="http://www.w3.org/2000/svg" xmlns:xlink="http://www.w3.org/1999/xlink" x="0px" y="0px"
	 viewBox="0 0 80.8 68.7" style="enable-background:new 0 0 80.8 68.7;" xml:space="preserve">
<style type="text/css">
	.st0{fill:#00CECE;}
	.st1{opacity:0.5;}
</style>
<g>
	<g>
		<g>
			<path class="st0" d="M32.1,46c-6.4,0-11.6-5.2-11.6-11.6c0-0.9,0.7-1.6,1.7-1.6s1.7,0.7,1.7,1.6c0,4.6,3.7,8.3,8.3,8.3
				c0.9,0,1.7,0.7,1.7,1.6S33,46,32.1,46z"/>
		</g>
		<g class="st1">
			<path class="st0" d="M22.1,36c-0.9,0-1.7-0.7-1.7-1.6c0-6.4,5.2-11.6,11.6-11.6c0.9,0,1.7,0.7,1.7,1.6S33,26,32.1,26
				c-4.6,0-8.3,3.7-8.3,8.3C23.8,35.3,23.1,36,22.1,36z"/>
		</g>
		<g>
			<path class="st0" d="M28.6,34.4c0,1.9,1.6,3.5,3.5,3.5s3.5-1.6,3.5-3.5c0-1.9-1.6-3.5-3.5-3.5S28.6,32.4,28.6,34.4z"/>
		</g>
		<g>
			<path class="st0" d="M35.6,18.9c-0.9,0-1.7-0.7-1.7-1.6V12c0-0.9,0.7-1.6,1.7-1.6s1.7,0.7,1.7,1.6v5.3
				C37.2,18.2,36.5,18.9,35.6,18.9z"/>
		</g>
		<g>
			<path class="st0" d="M9.7,39.5c-0.9,0-1.7-0.7-1.7-1.6v-7c0-0.9,0.7-1.6,1.7-1.6h4c0.4-1.5,1-2.9,1.8-4.2l-2.8-2.9
				c-0.6-0.6-0.6-1.7,0-2.3l4.9-4.9c0.3-0.3,0.7-0.5,1.2-0.5l0,0c0.4,0,0.9,0.2,1.2,0.5l2.8,2.9c1.3-0.8,2.8-1.3,4.2-1.8v-4
				c0-0.9,0.7-1.6,1.7-1.6h7c0.9,0,1.7,0.7,1.7,1.6s-0.7,1.6-1.7,1.6h-5.3v3.7c0,0.8-0.6,1.5-1.3,1.6c-2,0.4-3.8,1.2-5.5,2.3
				c-0.7,0.4-1.5,0.3-2.1-0.2l-2.6-2.6L16.1,21l2.6,2.6c0.6,0.6,0.6,1.4,0.2,2.1c-1.1,1.7-1.9,3.6-2.3,5.5c-0.2,0.8-0.8,1.3-1.6,1.3
				h-3.7v5.3C11.4,38.7,10.6,39.5,9.7,39.5z"/>
		</g>
		<g class="st1">
			<path class="st0" d="M35.6,58.4h-7c-0.9,0-1.7-0.7-1.7-1.6s0.7-1.6,1.7-1.6h7c0.9,0,1.7,0.7,1.7,1.6S36.5,58.4,35.6,58.4z"/>
		</g>
		<g>
			<path class="st0" d="M28.6,58.4c-0.9,0-1.7-0.7-1.7-1.6v-4c-1.5-0.4-2.9-1-4.2-1.8l-2.8,2.8c-0.6,0.6-1.7,0.6-2.3,0l-4.9-4.9
				c-0.6-0.6-0.6-1.7,0-2.3l2.8-2.8c-0.8-1.3-1.3-2.7-1.8-4.2h-4c-0.9,0-1.7-0.7-1.7-1.6s0.7-1.6,1.7-1.6H15c0.8,0,1.5,0.6,1.6,1.3
				c0.4,2,1.2,3.8,2.3,5.5c0.4,0.7,0.3,1.5-0.2,2.1l-2.6,2.6l2.6,2.6l2.6-2.6c0.6-0.6,1.4-0.6,2.1-0.2c1.7,1.1,3.6,1.9,5.5,2.3
				c0.8,0.2,1.3,0.8,1.3,1.6v5.3C30.3,57.7,29.5,58.4,28.6,58.4z"/>
		</g>
	</g>
	<g>
		<path class="st0" d="M35.2,30.9c-0.4,0-0.7-0.1-1-0.4c-0.7-0.6-0.8-1.6-0.2-2.3l7.8-9.6C42,18.2,42.5,18,43,18H60
			c0.9,0,1.7,0.7,1.7,1.6s-0.7,1.6-1.7,1.6H43.8l-7.3,8.9C36.2,30.7,35.7,30.9,35.2,30.9z"/>
	</g>
	<g>
		<path class="st0" d="M64,24.9c-3,0-5.4-2.4-5.4-5.4c0-3,2.4-5.4,5.4-5.4c3,0,5.4,2.4,5.4,5.4C69.4,22.5,67,24.9,64,24.9z M64,17.4
			c-1.2,0-2.1,0.9-2.1,2.1c0,1.2,0.9,2.1,2.1,2.1c1.2,0,2.1-0.9,2.1-2.1C66.1,18.4,65.2,17.4,64,17.4z"/>
	</g>
	<g class="st1">
		<path class="st0" d="M58.6,52.1c-3,0-5.4-2.4-5.4-5.4s2.4-5.4,5.4-5.4s5.4,2.4,5.4,5.4S61.6,52.1,58.6,52.1z M58.6,44.6
			c-1.2,0-2.1,0.9-2.1,2.1s0.9,2.1,2.1,2.1s2.1-0.9,2.1-2.1S59.8,44.6,58.6,44.6z"/>
	</g>
	<g>
		<path class="st0" d="M67.4,39.9c-3,0-5.4-2.4-5.4-5.4s2.4-5.4,5.4-5.4s5.4,2.4,5.4,5.4S70.4,39.9,67.4,39.9z M67.4,32.4
			c-1.2,0-2.1,0.9-2.1,2.1s0.9,2.1,2.1,2.1s2.1-0.9,2.1-2.1S68.6,32.4,67.4,32.4z"/>
	</g>
	<g class="st1">
		<path class="st0" d="M49.1,36.2H32.1c-0.9,0-1.7-0.7-1.7-1.6s0.7-1.6,1.7-1.6h17.1c0.9,0,1.7,0.7,1.7,1.6S50.1,36.2,49.1,36.2z"/>
	</g>
	<g>
		<path class="st0" d="M59.1,36.2h-4.3c-0.9,0-1.7-0.7-1.7-1.6s0.7-1.6,1.7-1.6h4.3c0.9,0,1.7,0.7,1.7,1.6S60,36.2,59.1,36.2z"/>
	</g>
	<g>
		<path class="st0" d="M54.6,48.2H38.3c-0.6,0-1.2-0.4-1.5-0.9l-3.6-7.5c-0.4-0.8-0.1-1.8,0.8-2.2c0.8-0.4,1.8-0.1,2.2,0.8l3.2,6.6
			h15.2c0.9,0,1.7,0.7,1.7,1.6S55.5,48.2,54.6,48.2z"/>
	</g>
	<g>
		<path class="st0" d="M55.6,58.4H42.1c-0.9,0-1.7-0.7-1.7-1.6s0.7-1.6,1.7-1.6h13.6c0.9,0,1.7,0.7,1.7,1.6S56.5,58.4,55.6,58.4z"/>
	</g>
</g>
</svg>
