<?xml version="1.0" encoding="utf-8"?>
<!-- Generator: Adobe Illustrator 24.2.0, SVG Export Plug-In . SVG Version: 6.00 Build 0)  -->
<svg version="1.1" id="Layer_1" xmlns="http://www.w3.org/2000/svg" xmlns:xlink="http://www.w3.org/1999/xlink" x="0px" y="0px"
	 viewBox="0 0 80.8 68.7" style="enable-background:new 0 0 80.8 68.7;" xml:space="preserve">
<style type="text/css">
	.st0{fill:#00CECE;}
	.st1{opacity:0.5;fill:#00CECE;}
	.st2{opacity:0.5;}
</style>
<g>
	<g>
		<path class="st0" d="M15.9,49.6c-2.2,0-4.1-1.8-4.1-4.1V18.4c0-2.2,1.8-4.1,4.1-4.1h27.3c0.9,0,1.7,0.8,1.7,1.7s-0.8,1.7-1.7,1.7
			H15.9c-0.4,0-0.7,0.3-0.7,0.7v27.1c0,0.4,0.3,0.7,0.7,0.7c0.9,0,1.7,0.8,1.7,1.7C17.6,48.8,16.8,49.6,15.9,49.6z"/>
		<path class="st0" d="M61.4,49.6H15.9c-0.9,0-1.7-0.8-1.7-1.7c0-0.9,0.8-1.7,1.7-1.7h45.5c0.4,0,0.7-0.3,0.7-0.7V30.7
			c0-0.9,0.8-1.7,1.7-1.7c0.9,0,1.7,0.8,1.7,1.7v14.8C65.4,47.7,63.6,49.6,61.4,49.6z"/>
	</g>
	<path class="st0" d="M59,41.3H13.7c-0.7,0-1.3-0.6-1.3-1.3c0-0.7,0.6-1.3,1.3-1.3H59c0.7,0,1.3,0.6,1.3,1.3
		C60.2,40.8,59.7,41.3,59,41.3z"/>
	<g>
		<path class="st0" d="M29,61.5c-0.9,0-1.7-0.8-1.7-1.7c0-0.9,0.8-1.7,1.7-1.7c1.2,0,2.2-1,2.2-2.2v-8c0-0.9,0.8-1.7,1.7-1.7
			c0.9,0,1.7,0.8,1.7,1.7v8C34.6,59,32.1,61.5,29,61.5z"/>
		<path class="st0" d="M48.3,61.5c-3.1,0-5.6-2.5-5.6-5.6v-8c0-0.9,0.8-1.7,1.7-1.7c0.9,0,1.7,0.8,1.7,1.7v8c0,1.2,1,2.2,2.2,2.2
			c0.9,0,1.7,0.8,1.7,1.7C50,60.7,49.2,61.5,48.3,61.5z"/>
	</g>
	<path class="st0" d="M54.1,61.3h-31c-0.9,0-1.7-0.8-1.7-1.7c0-0.9,0.8-1.7,1.7-1.7h31c0.9,0,1.7,0.8,1.7,1.7
		C55.8,60.5,55.1,61.3,54.1,61.3z"/>
	<g>
		<path class="st0" d="M63.7,19.2h-2.2l1-4h-2.1l-0.9,4h-2.5l-0.9-4h-2.3l-0.9,4h-2.5l-0.9-4h-2.1l1,4h-2.2v2H49l1.6,6h2.2l1.4-6
			h1.7l1.4,6h2.2l1.6-6h2.7V19.2z M51.9,23.6l-0.2,1.2l-0.2-1.2l-0.5-2.4h1.5L51.9,23.6z M54.7,19.2l0.1-0.5l0.2-1.2l0.2,1.2
			l0.1,0.5H54.7z M58.6,23.6l-0.2,1.2l-0.2-1.2l-0.6-2.4h1.5L58.6,23.6z"/>
		<path class="st1" d="M55,35.2c-7.7,0-14-6.3-14-14c0-7.7,6.3-14,14-14c7.7,0,14,6.3,14,14C69,28.9,62.7,35.2,55,35.2z M55,10.6
			c-5.8,0-10.6,4.8-10.6,10.6c0,5.8,4.8,10.6,10.6,10.6s10.6-4.8,10.6-10.6C65.6,15.4,60.9,10.6,55,10.6z"/>
	</g>
	<g class="st2">
		<path class="st0" d="M22.3,25h-3.7c-0.6,0-1.1-0.5-1.1-1.1c0-0.6,0.5-1.1,1.1-1.1h3.7c0.6,0,1.1,0.5,1.1,1.1
			C23.3,24.5,22.8,25,22.3,25z"/>
		<path class="st0" d="M38.9,25H26.8c-0.6,0-1.1-0.5-1.1-1.1c0-0.6,0.5-1.1,1.1-1.1h12.2c0.6,0,1.1,0.5,1.1,1.1
			C40,24.5,39.5,25,38.9,25z"/>
	</g>
	<g class="st2">
		<path class="st0" d="M22.3,31.2h-3.7c-0.6,0-1.1-0.5-1.1-1.1c0-0.6,0.5-1.1,1.1-1.1h3.7c0.6,0,1.1,0.5,1.1,1.1
			C23.3,30.7,22.8,31.2,22.3,31.2z"/>
		<path class="st0" d="M38.9,31.2H26.8c-0.6,0-1.1-0.5-1.1-1.1c0-0.6,0.5-1.1,1.1-1.1h12.2c0.6,0,1.1,0.5,1.1,1.1
			C40,30.7,39.5,31.2,38.9,31.2z"/>
	</g>
	<path class="st0" d="M41.1,45.1h-5c-0.6,0-1.1-0.5-1.1-1.1c0-0.6,0.5-1.1,1.1-1.1h5c0.6,0,1.1,0.5,1.1,1.1
		C42.2,44.6,41.7,45.1,41.1,45.1z"/>
</g>
</svg>
