<?xml version="1.0" encoding="utf-8"?>
<!-- Generator: Adobe Illustrator 24.2.0, SVG Export Plug-In . SVG Version: 6.00 Build 0)  -->
<svg version="1.1" id="Layer_1" xmlns="http://www.w3.org/2000/svg" xmlns:xlink="http://www.w3.org/1999/xlink" x="0px" y="0px"
	 viewBox="0 0 82 73" style="enable-background:new 0 0 82 73;" xml:space="preserve">
<style type="text/css">
	.st0{fill:#111111;}
	.st1{opacity:0.5;}
</style>
<g>
	<g>
		<path class="st0" d="M79.7,46.6c-0.4,0-0.8-0.1-1.1-0.4l-6.7-6v0.3c0,0.9-0.7,1.6-1.7,1.6H55.4c-0.9,0-1.7-0.7-1.7-1.6
			s0.7-1.6,1.7-1.6h13.3v-2.3c0-0.6,0.4-1.2,1-1.5c0.6-0.3,1.3-0.2,1.8,0.3l9.5,8.4c0.7,0.6,0.7,1.6,0.1,2.3
			C80.7,46.4,80.2,46.6,79.7,46.6z"/>
	</g>
	<g class="st1">
		<path class="st0" d="M70.3,55c-0.2,0-0.5,0-0.7-0.1c-0.6-0.3-1-0.9-1-1.5V51H55.4c-0.9,0-1.7-0.7-1.7-1.6s0.7-1.6,1.7-1.6h14.9
			c0.9,0,1.7,0.7,1.7,1.6v0.3l6.7-6c0.7-0.6,1.7-0.5,2.3,0.1c0.6,0.7,0.5,1.7-0.1,2.3l-9.5,8.4C71.1,54.8,70.7,55,70.3,55z"/>
	</g>
	<g>
		<g>
			<path class="st0" d="M50,35.4c-0.5,0-1-0.2-1.3-0.7c-0.6-0.7-0.4-1.8,0.3-2.3l3.5-2.7L49,27.1c-0.7-0.6-0.9-1.6-0.3-2.3
				c0.5-0.7,1.6-0.9,2.3-0.3l5.3,4c0.4,0.3,0.7,0.8,0.7,1.3c0,0.5-0.2,1-0.7,1.3l-5.3,4C50.6,35.3,50.3,35.4,50,35.4z"/>
		</g>
		<g>
			<path class="st0" d="M52.6,31.4h-12c-0.9,0-1.7-0.7-1.7-1.6s0.7-1.6,1.7-1.6h12c0.9,0,1.7,0.7,1.7,1.6S53.5,31.4,52.6,31.4z"/>
		</g>
	</g>
	<g class="st1">
		<g>
			<path class="st0" d="M31.5,24.6c-0.5,0-1-0.2-1.3-0.7c-0.6-0.7-0.4-1.8,0.3-2.3L34,19l-3.5-2.7c-0.7-0.6-0.9-1.6-0.3-2.3
				c0.5-0.7,1.6-0.9,2.3-0.3l5.3,4c0.4,0.3,0.7,0.8,0.7,1.3c0,0.5-0.2,1-0.7,1.3l-5.3,4C32.2,24.5,31.8,24.6,31.5,24.6z"/>
		</g>
		<g>
			<path class="st0" d="M34.1,20.6h-12c-0.9,0-1.7-0.7-1.7-1.6s0.7-1.6,1.7-1.6h12c0.9,0,1.7,0.7,1.7,1.6S35,20.6,34.1,20.6z"/>
		</g>
	</g>
	<g class="st1">
		<path class="st0" d="M41.2,59.6c-0.9,0-1.7-0.7-1.7-1.6s0.7-1.6,1.7-1.6c4.2,0,7.7-3.5,7.7-7.7c0-4.2-3.5-7.7-7.7-7.7
			c-1.7,0-3.4,0.6-4.8,1.7c-0.7,0.6-1.8,0.4-2.3-0.3c-0.6-0.7-0.4-1.8,0.3-2.3c2-1.5,4.3-2.4,6.8-2.4c6.1,0,11,4.9,11,11
			C52.2,54.7,47.2,59.6,41.2,59.6z"/>
	</g>
	<g class="st1">
		<path class="st0" d="M10.1,59.7c-4.9,0-9-4-9-9c0-4.9,4-9,9-9c3.4,0,6.5,1.9,8,5c0.4,0.8,0.1,1.8-0.7,2.2
			c-0.8,0.4-1.8,0.1-2.2-0.7c-1-1.9-2.9-3.2-5.1-3.2c-3.1,0-5.7,2.5-5.7,5.7c0,3.1,2.5,5.7,5.7,5.7c0.9,0,1.7,0.7,1.7,1.6
			S11,59.7,10.1,59.7z"/>
	</g>
	<g>
		<path class="st0" d="M11.5,45.2c-0.9,0-1.6-0.7-1.6-1.5c0-0.4,0-0.8,0-1.3c0-9.2,7.5-16.6,16.6-16.6c7.8,0,14.5,5.3,16.2,12.9
			c0.2,0.9-0.3,1.8-1.2,2c-0.9,0.2-1.8-0.3-2-1.2c-1.4-6.1-6.8-10.3-13-10.3c-7.4,0-13.3,6-13.3,13.3c0,0.3,0,0.7,0,1
			c0.1,0.9-0.6,1.7-1.5,1.8C11.6,45.2,11.6,45.2,11.5,45.2z"/>
	</g>
	<g>
		<path class="st0" d="M62.2,59.7H9.5c-0.9,0-1.7-0.7-1.7-1.6s0.7-1.6,1.7-1.6h52.7c0.9,0,1.7,0.7,1.7,1.6S63.1,59.7,62.2,59.7z"/>
	</g>
	<g class="st1">
		<path class="st0" d="M12.8,38.4H3.5c-0.9,0-1.7-0.7-1.7-1.6s0.7-1.6,1.7-1.6h9.2c0.9,0,1.7,0.7,1.7,1.6S13.7,38.4,12.8,38.4z"/>
	</g>
	<g class="st1">
		<path class="st0" d="M21,38.4h-3.2c-0.9,0-1.7-0.7-1.7-1.6s0.7-1.6,1.7-1.6H21c0.9,0,1.7,0.7,1.7,1.6S21.9,38.4,21,38.4z"/>
	</g>
	<g class="st1">
		<path class="st0" d="M10,53.1H2.3c-0.9,0-1.7-0.7-1.7-1.6s0.7-1.6,1.7-1.6H10c0.9,0,1.7,0.7,1.7,1.6S10.9,53.1,10,53.1z"/>
	</g>
	<g>
		<path class="st0" d="M19.3,53.1h-4c-0.9,0-1.7-0.7-1.7-1.6s0.7-1.6,1.7-1.6h4c0.9,0,1.7,0.7,1.7,1.6S20.2,53.1,19.3,53.1z"/>
	</g>
	<g class="st1">
		<path class="st0" d="M35.3,53.1h-9.8c-0.9,0-1.7-0.7-1.7-1.6s0.7-1.6,1.7-1.6h9.8c0.9,0,1.7,0.7,1.7,1.6S36.2,53.1,35.3,53.1z"/>
	</g>
</g>
</svg>
