<?xml version="1.0" encoding="utf-8"?>
<!-- Generator: Adobe Illustrator 24.2.0, SVG Export Plug-In . SVG Version: 6.00 Build 0)  -->
<svg version="1.1" id="Layer_1" xmlns="http://www.w3.org/2000/svg" xmlns:xlink="http://www.w3.org/1999/xlink" x="0px" y="0px"
	 viewBox="0 0 82 73" style="enable-background:new 0 0 82 73;" xml:space="preserve">
<style type="text/css">
	.st0{fill:#1E1E1E;}
	.st1{opacity:0.5;}
</style>
<g>
	<g>
		<path class="st0" d="M69.6,29.6c-0.9,0-1.6-0.7-1.6-1.6c0-4.1-3.3-7.4-7.4-7.4c-0.8,0-1.5,0.1-2.2,0.3c-0.5,0.2-1.1,0.1-1.5-0.3
			c-0.4-0.3-0.7-0.9-0.6-1.4c0-0.1,0-0.2,0-0.3c0-2.4-1.9-4.3-4.3-4.3c-0.9,0-1.7,0.3-2.5,0.8c-0.4,0.3-0.9,0.4-1.4,0.2
			c-0.5-0.1-0.9-0.5-1.1-1c-1.8-4.9-6.6-8.1-11.8-8.1c-6.9,0-12.5,5.6-12.6,12.5c0,0.9-0.7,1.6-1.5,1.6c-3.9,0.2-6.9,3.5-6.9,7.4
			c0,0.9-0.7,1.6-1.6,1.6S11,28.9,11,28c0-5.1,3.7-9.5,8.6-10.5c0.8-8,7.6-14.3,15.8-14.3c5.9,0,11.4,3.4,14.1,8.6
			c0.8-0.3,1.7-0.5,2.6-0.5c3.7,0,6.7,2.6,7.5,6c0.4,0,0.8-0.1,1.2-0.1c5.9,0,10.7,4.8,10.7,10.7C71.3,28.9,70.5,29.6,69.6,29.6z"/>
	</g>
	<g class="st1">
		<path class="st0" d="M60.6,38.6H21.5c-5.9,0-10.7-4.8-10.7-10.7c0-0.9,0.7-1.6,1.6-1.6S14,27,14,27.9c0,4.1,3.3,7.4,7.4,7.4h39.1
			c4.1,0,7.4-3.3,7.4-7.4c0-0.9,0.7-1.6,1.6-1.6s1.6,0.7,1.6,1.6C71.3,33.8,66.5,38.6,60.6,38.6z"/>
	</g>
	<g>
		<g class="st1">
			<path class="st0" d="M51.5,52.8h-23c-3.4,0-6.1-2.8-6.1-6.1s2.8-6.1,6.1-6.1h23c3.4,0,6.1,2.8,6.1,6.1S54.9,52.8,51.5,52.8z
				 M28.5,43.8c-1.6,0-2.9,1.3-2.9,2.9s1.3,2.9,2.9,2.9h23c1.6,0,2.9-1.3,2.9-2.9s-1.3-2.9-2.9-2.9H28.5z"/>
		</g>
		<g>
			<path class="st0" d="M55,32.8H24.7c-0.9,0-1.6-0.7-1.6-1.6s0.7-1.6,1.6-1.6H55c0.9,0,1.6,0.7,1.6,1.6S56,32.8,55,32.8z"/>
		</g>
		<g>
			<path class="st0" d="M39.7,42.8c-0.9,0-1.6-0.7-1.6-1.6v-9.7c0-0.9,0.7-1.6,1.6-1.6s1.6,0.7,1.6,1.6v9.7
				C41.4,42.1,40.6,42.8,39.7,42.8z"/>
		</g>
		<g>
			<path class="st0" d="M41.7,47.6H31.4c-0.6,0-1.1-0.5-1.1-1.1s0.5-1.1,1.1-1.1h10.3c0.6,0,1.1,0.5,1.1,1.1S42.3,47.6,41.7,47.6z"
				/>
		</g>
		<g>
			<path class="st0" d="M48.5,47.5H46c-0.6,0-1-0.4-1-1s0.4-1,1-1h2.5c0.6,0,1,0.4,1,1S49,47.5,48.5,47.5z"/>
		</g>
		<g>
			<path class="st0" d="M48.5,64.5H46c-0.6,0-1-0.4-1-1s0.4-1,1-1h2.5c0.6,0,1,0.4,1,1S49,64.5,48.5,64.5z"/>
		</g>
		<g class="st1">
			<path class="st0" d="M51.5,69.8h-23c-3.4,0-6.1-2.8-6.1-6.1s2.8-6.1,6.1-6.1h23c3.4,0,6.1,2.8,6.1,6.1
				C57.6,67,54.9,69.8,51.5,69.8z M28.5,60.8c-1.6,0-2.9,1.3-2.9,2.9s1.3,2.9,2.9,2.9h23c1.6,0,2.9-1.3,2.9-2.9s-1.3-2.9-2.9-2.9
				C51.5,60.8,28.5,60.8,28.5,60.8z"/>
		</g>
		<g class="st1">
			<path class="st0" d="M39.7,60.8c-0.9,0-1.6-0.7-1.6-1.6v-7.7c0-0.9,0.7-1.6,1.6-1.6s1.6,0.7,1.6,1.6v7.7
				C41.4,60.1,40.6,60.8,39.7,60.8z"/>
		</g>
		<g>
			<path class="st0" d="M41.7,64.8H31.4c-0.7,0-1.2-0.6-1.2-1.2s0.6-1.2,1.2-1.2h10.3c0.7,0,1.2,0.6,1.2,1.2S42.4,64.8,41.7,64.8z"
				/>
		</g>
	</g>
</g>
</svg>
